<?xml version="1.0" encoding="UTF-8" standalone="no"?>
<svg
   xmlns:dc="http://purl.org/dc/elements/1.1/"
   xmlns:cc="http://creativecommons.org/ns#"
   xmlns:rdf="http://www.w3.org/1999/02/22-rdf-syntax-ns#"
   xmlns:svg="http://www.w3.org/2000/svg"
   xmlns="http://www.w3.org/2000/svg"
   viewBox="0 0 3805.6667 2665.9333"
   height="2665.9333"
   width="3805.6667"
   xml:space="preserve"
   id="svg2"
   version="1.1"><metadata
     id="metadata8"><rdf:RDF><cc:Work
         rdf:about=""><dc:format>image/svg+xml</dc:format><dc:type
           rdf:resource="http://purl.org/dc/dcmitype/StillImage" /></cc:Work></rdf:RDF></metadata><defs
     id="defs6" /><g
     transform="matrix(1.3333333,0,0,-1.3333333,0,2665.9333)"
     id="g10"><g
       transform="scale(0.1)"
       id="g12"><g
         transform="scale(1.75108)"
         id="g14"><path
           id="path16"
           style="fill:#ffffff;fill-opacity:1;fill-rule:nonzero;stroke:none"
           d="m 14084.7,3542.9 -935,873.12 c 623.5,0.05 1247,0.23 1870.5,0.46 z m -2741.4,471.08 c -157.7,161.79 -337.6,296.45 -534.1,401.92 353.3,0 706.7,0.06 1060.2,0.06 v -108.73 -326.14 -837.71 c -109.3,328.76 -287.3,625.61 -526.1,870.6 z M 10318.8,1672.51 c -156.7,-175.15 -371.79,-267.72 -622.1,-267.72 -250.3,0 -465.42,92.57 -622.19,267.72 -154.19,172.3 -239.05,410.89 -239.05,671.82 0,260.86 84.86,499.46 239.05,671.75 156.77,175.15 371.89,267.78 622.19,267.78 250.31,0 465.4,-92.63 622.1,-267.78 154.2,-172.29 239.1,-410.89 239.1,-671.75 0,-260.93 -84.9,-499.52 -239.1,-671.82 z M 8050.06,4013.98 c -241.28,-247.45 -420.37,-547.89 -529.39,-880.71 -108.96,332.82 -288.05,633.26 -529.33,880.71 -209.47,214.9 -458.17,382.05 -733.03,496.21 91.66,54.88 153.05,155.1 153.05,269.66 V 5270 c 52.77,-68.75 109.65,-134.54 170.46,-196.96 424.09,-434.99 1008.87,-674.55 1646.59,-674.55 128.15,0 254.07,9.65 377.08,28.66 -204.9,-107.07 -392.1,-245.62 -555.43,-413.17 z M 5966.89,1672.51 c -156.76,-175.15 -371.88,-267.72 -622.18,-267.72 -250.29,0 -465.43,92.57 -622.15,267.72 -154.18,172.3 -239.09,410.89 -239.09,671.82 0,260.86 84.91,499.46 239.09,671.75 156.72,175.15 371.86,267.78 622.15,267.78 250.3,0 465.42,-92.63 622.18,-267.78 154.13,-172.29 239.05,-410.89 239.05,-671.75 0,-260.93 -84.92,-499.52 -239.05,-671.82 z m -2268.8,2341.47 c -212.26,-217.69 -376.41,-476.45 -487.03,-762.1 -36.13,368.86 -192.02,698.54 -448.11,941.19 -117.99,111.82 -254.31,203.25 -406.38,272.69 h 431.59 223.54 646.04 v 0 h 673.32 C 4095.75,4354.23 3881.83,4202.49 3698.09,4013.98 Z M 1929.67,2814.78 C 1842.46,2744.71 1684.8,2706.1 1485.71,2706.1 h -307.52 v 757.02 h 307.52 c 199.09,0 356.75,-38.6 443.96,-108.68 27.4,-21.98 100.15,-80.46 100.15,-269.83 0,-189.37 -72.75,-247.84 -100.15,-269.83 z m -751.48,5046.78 h 307.52 c 199.09,0 356.75,-38.59 443.96,-108.66 27.4,-22 100.15,-80.46 100.15,-269.84 0,-189.37 -72.75,-247.83 -100.15,-269.83 -87.21,-70.07 -244.87,-108.66 -443.96,-108.66 h -307.52 z m 119.95,-3124.94 c 1.96,14.16 3.04,28.55 3.04,43.23 v 881.57 l 659.45,-1048.78 c 5.86,-9.31 12.2,-18.22 18.91,-26.78 -120.31,23.52 -245.84,35.46 -375.54,35.46 h -305.86 z m 1633.42,1803.96 c 91.36,124.98 161.75,266.15 210.07,419.38 V 5158.42 l -642.21,998.15 c 171.06,97.41 317.2,226.78 432.14,384.01 z m 1511.24,-436.6 h 1565.78 c 33.18,-129.02 76.58,-253.86 129.63,-373.43 -13.42,1.75 -27.07,2.75 -40.94,2.75 H 4442.8 Z m 0,1648.26 h 1620.77 c 26.84,0 52.89,3.38 77.73,9.71 -54.54,-121.75 -98.91,-249.02 -132.78,-380.63 H 4442.8 Z m 3163.48,-337.68 c 156.7,175.16 371.83,267.74 622.13,267.74 250.3,0 465.43,-92.58 622.19,-267.74 20.9,-23.41 40.6,-48.05 58.93,-73.8 84.52,-118.62 241,-160.81 372.12,-97.35 l 618.36,299.36 c 0,-519.63 0.05,-1039.27 0.11,-1558.9 l -597,288.98 c -133.41,64.59 -294.39,21.03 -376.11,-102.63 -23.19,-35.06 -48.66,-68.23 -76.41,-99.24 -156.76,-175.17 -371.89,-267.75 -622.19,-267.75 -250.3,0 -465.43,92.58 -622.13,267.75 -154.19,172.32 -239.11,410.89 -239.11,671.79 0,260.89 84.92,499.48 239.11,671.79 z M 10539.5,10848 c 46,23 96,33.1 147.6,33.2 1609,0.1 3218,0.2 4827,-0.4 78.7,0 152.1,-19.9 210.5,-77.3 24.9,-24.5 37,-53 36.8,-87.7 -0.4,-102.6 -0.1,-290.8 -0.2,-393.4 0,-34.4 0,-34.5 -35.3,-34.5 -875.3,0 -1750.5,0 -2625.8,0 -872.6,0 -1745.2,-0.1 -2617.8,0 -46.1,0 -41.2,-4.8 -41.3,41.6 -0.2,93.7 2.9,273.3 -1,366.8 -3.2,76.4 37.3,120.6 99.5,151.7 z M 15735,7234.12 c -157.1,-107.12 -318.9,-206.46 -487.7,-294.36 -200.5,-104.39 -408.2,-192.94 -622.5,-265.87 -242.1,-82.37 -490.1,-141.98 -742.6,-182.71 -97.4,-15.71 -196.2,-24.41 -294.6,-33.34 -84.3,-7.65 -169,-12.8 -253.7,-15.92 -96.5,-3.55 -193.2,-6.92 -289.7,-4.28 -98,2.68 -195.8,11.75 -293.5,19.89 -161.7,13.48 -322.4,34.83 -481.2,68.7 -161.7,34.46 -321.8,73.97 -479.3,124.2 -199.6,63.63 -393.5,140.76 -582.1,230.94 -264.2,126.31 -512.9,277.87 -746.5,453.23 -10.8,8.08 -19.8,26.01 -19.8,39.37 -1,783.78 -0.8,1561.84 -1.2,2345.62 0,20.34 5.3,27.38 27,27.35 445.3,-0.58 867.8,-0.74 1313.1,0.24 29.8,0.06 28.1,-14.6 28,-34.41 -0.2,-660.81 -0.2,-1270.23 -0.2,-1931.04 0,-8.85 -0.1,-17.7 0.1,-26.54 0.7,-39.89 14.8,-53.84 55.8,-53.92 113.8,-0.23 267.6,-0.08 381.4,-0.08 16.1,0 32.2,-0.4 48.4,0.12 35.4,1.14 49.6,15.49 50.7,50.97 0.2,7.95 0,15.92 0,23.88 0.1,659.05 0,1266.7 0.1,1925.74 0,13.19 0,26.38 0,42.84 11,0.65 20.4,1.7 29.8,1.7 495.5,0.08 956.7,-0.2 1452.3,0.74 29,0.06 30.6,-11.84 30.6,-34.47 -0.4,-662.59 -0.4,-1273.77 -0.4,-1936.35 0,-67.55 7.9,-75.17 77.5,-75.17 118.2,-0.01 270.8,-0.04 389,0.01 52.3,0.02 64.2,11.96 64.2,64.42 0,662.59 0,1273.77 0,1936.35 0,13.17 0,26.35 0,44.54 14.4,0 25,0 35.5,0 439.9,0 862.7,0.01 1302.7,-0.01 35,0 35,-0.07 35,-34.77 0.1,-811.19 0,-1616.68 0.6,-2427.88 0,-23.32 -8.1,-36.96 -26.8,-49.73 z m -65.9,-2244.28 c -50.4,-26.62 -105.6,-36.84 -162.8,-36.84 -1605.6,0.12 -3211.1,-0.06 -4816.7,0.57 -81.4,0 -157.6,19.59 -216.5,81.84 -21.3,22.5 -32.2,48.31 -32.2,78.8 0,549.32 0,1058.67 0.1,1607.97 0,6.07 0.8,12.14 1.7,23.68 810,-510.25 1689.4,-783.49 2647,-798.72 957.6,-15.23 1846.1,226.83 2671.6,717.4 0,-17.65 0,-29.58 0,-41.51 0,-510.38 -0.7,-980.8 0.8,-1491.17 0.2,-70.64 -36.3,-112.1 -93,-142.02 z m 628.8,-646.81 v 880.26 h -0.2 c -1.3,897.6 -0.7,1795.18 -0.7,2692.76 0,961.53 0.1,1923.06 -0.3,2884.55 0,27.1 -1,55 -7.2,81.1 -35.4,148.1 -112.5,270.4 -232.7,364.4 -150.7,117.8 -323.1,172.3 -513.5,172.3 -1628.6,0 -3257.2,0.1 -4885.8,-0.5 -47.9,0 -96.5,-2.5 -143.6,-10.6 -156.3,-26.7 -297.6,-89 -412.9,-199.3 -130.3,-124.4 -201.45,-276.3 -201.39,-459.9 0.23,-787.19 0.28,-1574.4 0.28,-2361.61 -8.22,8.72 -16.5,17.39 -24.84,25.98 -424.08,435.03 -1008.86,674.6 -1646.64,674.6 -637.72,0 -1222.5,-239.57 -1646.59,-674.6 -74.01,-75.88 -142.08,-156.75 -204.15,-241.97 v 535.19 c 0,173.47 -140.6,314.09 -314.1,314.09 l -2607.85,-0.01 c -173.47,0 -314.09,-140.62 -314.09,-314.09 v -719.09 c -75.16,232.16 -203.47,438.92 -378.68,604.96 -146.17,138.53 -320.44,245.75 -517.97,318.69 -196.82,72.68 -412.47,109.53 -640.98,109.53 H 314.092 C 140.621,9019.77 0,8879.15 0,8705.68 V 5056.08 4779.85 4307.23 4186.5 381.365 C 0,207.93 140.621,67.2732 314.092,67.2732 h 672.995 c 173.473,0 314.093,140.6568 314.093,314.0918 V 1262.99 L 1960.63,214.212 c 57.49,-91.431 157.91,-146.9388 265.9,-146.9388 h 785.17 c 114.91,0 220.66,62.7608 275.71,163.6718 55.05,100.85 50.61,223.748 -11.57,320.373 L 2499.42,1758.12 c 171.06,97.36 317.2,226.77 432.14,383.99 42.52,58.19 80.47,119.87 113.81,184.63 4.17,-638.07 235.57,-1224.22 652.72,-1652.127 C 4122.18,239.566 4706.96,0 5344.71,0 c 637.77,0 1222.55,239.566 1646.63,674.613 241.28,247.503 420.37,547.947 529.33,880.717 109.02,-332.77 288.11,-633.214 529.39,-880.717 C 8474.14,239.566 9058.93,0 9696.7,0 c 637.7,0 1222.5,239.566 1646.6,674.613 238.8,244.991 416.8,541.837 526.1,870.607 V 381.365 c 0,-173.435 140.6,-314.0918 314.1,-314.0918 h 672.9 c 173.5,0 314.1,140.6568 314.1,314.0918 V 2577.95 l 694,-681.86 c 122.2,-120.04 318.1,-120.04 440.3,0 l 694,681.86 V 381.365 c 0,-173.435 140.6,-314.0918 314.1,-314.0918 h 673 c 173.4,0 314.1,140.6568 314.1,314.0918 V 4307.23 c 0,12.1 -0.8,24.04 -2.1,35.8" /></g></g></g></svg>